<mxfile host="app.diagrams.net" modified="2021-10-12T14:01:38.158Z" agent="5.0 (Windows NT 10.0; Win64; x64) AppleWebKit/537.36 (KHTML, like Gecko) Chrome/94.0.4606.71 Safari/537.36 Edg/94.0.992.38" etag="vEfmAxfS6UAQTaWcenlZ" version="15.5.1" type="github">
  <diagram id="1C4sk1OV5w2iFa7L-SlU" name="Page-1">
    <mxGraphModel dx="2976" dy="2758" grid="1" gridSize="10" guides="1" tooltips="1" connect="1" arrows="1" fold="1" page="1" pageScale="1" pageWidth="900" pageHeight="1600" math="0" shadow="0">
      <root>
        <mxCell id="0" />
        <mxCell id="1" parent="0" />
        <mxCell id="xAyLUSCtERjkVuUPuIgZ-39" value="" style="rounded=0;whiteSpace=wrap;html=1;fontFamily=Times New Roman;fontSize=18;strokeColor=#FFB570;strokeWidth=5;fillColor=#FFB570;fontColor=#FFFFFF;" parent="1" vertex="1">
          <mxGeometry y="1" width="200" height="78" as="geometry" />
        </mxCell>
        <mxCell id="xAyLUSCtERjkVuUPuIgZ-40" value="Этапы" style="text;strokeColor=none;fillColor=none;fontSize=45;fontStyle=2;verticalAlign=middle;align=center;fontFamily=Comic Sans MS;labelBackgroundColor=none;labelBorderColor=none;html=1;textOpacity=80;fontColor=#FFFFFF;" parent="1" vertex="1">
          <mxGeometry x="20" y="39" width="100" height="40" as="geometry" />
        </mxCell>
        <mxCell id="xAyLUSCtERjkVuUPuIgZ-43" value="" style="shape=step;perimeter=stepPerimeter;whiteSpace=wrap;html=1;fixedSize=1;labelBackgroundColor=none;labelBorderColor=none;fontFamily=Comic Sans MS;fontSize=45;fontColor=#FFFFFF;strokeColor=#FF6A3D;strokeWidth=5;fillColor=#FF6A3D;size=70;" parent="1" vertex="1">
          <mxGeometry x="220" y="3" width="300" height="78" as="geometry" />
        </mxCell>
        <mxCell id="xAyLUSCtERjkVuUPuIgZ-44" value="" style="shape=step;perimeter=stepPerimeter;whiteSpace=wrap;html=1;fixedSize=1;labelBackgroundColor=none;labelBorderColor=none;fontFamily=Comic Sans MS;fontSize=45;fontColor=#FFFFFF;strokeColor=#FF7A3D;strokeWidth=5;fillColor=#FF7A3D;size=70;" parent="1" vertex="1">
          <mxGeometry x="470" y="3" width="300" height="78" as="geometry" />
        </mxCell>
        <mxCell id="xAyLUSCtERjkVuUPuIgZ-45" value="" style="shape=step;perimeter=stepPerimeter;whiteSpace=wrap;html=1;fixedSize=1;labelBackgroundColor=none;labelBorderColor=none;fontFamily=Comic Sans MS;fontSize=45;fontColor=#FFFFFF;strokeColor=#FF9A4D;strokeWidth=5;fillColor=#FF9A4D;size=70;" parent="1" vertex="1">
          <mxGeometry x="720" y="3" width="300" height="78" as="geometry" />
        </mxCell>
        <mxCell id="xAyLUSCtERjkVuUPuIgZ-46" value="" style="rounded=0;whiteSpace=wrap;html=1;labelBackgroundColor=none;labelBorderColor=none;fontFamily=Comic Sans MS;fontSize=45;fontColor=#FFFFFF;strokeColor=#FF6A3D;strokeWidth=5;fillColor=#FF6A3D;" parent="1" vertex="1">
          <mxGeometry x="210" y="3" width="120" height="78" as="geometry" />
        </mxCell>
        <mxCell id="xAyLUSCtERjkVuUPuIgZ-48" value="" style="shape=step;perimeter=stepPerimeter;whiteSpace=wrap;html=1;fixedSize=1;labelBackgroundColor=none;labelBorderColor=none;fontFamily=Comic Sans MS;fontSize=45;fontColor=#FFFFFF;strokeColor=#FFB440;strokeWidth=5;fillColor=#FFB440;size=70;" parent="1" vertex="1">
          <mxGeometry x="970" y="3" width="400" height="78" as="geometry" />
        </mxCell>
        <mxCell id="xAyLUSCtERjkVuUPuIgZ-50" value="" style="shape=step;perimeter=stepPerimeter;whiteSpace=wrap;html=1;fixedSize=1;labelBackgroundColor=none;labelBorderColor=none;fontFamily=Comic Sans MS;fontSize=45;fontColor=#FFFFFF;strokeColor=#FFCE10;strokeWidth=5;fillColor=#FFCE10;size=70;" parent="1" vertex="1">
          <mxGeometry x="1320" y="3" width="360" height="78" as="geometry" />
        </mxCell>
        <mxCell id="xAyLUSCtERjkVuUPuIgZ-52" value="" style="rounded=0;whiteSpace=wrap;html=1;labelBackgroundColor=none;labelBorderColor=none;fontFamily=Comic Sans MS;fontSize=45;strokeWidth=5;strokeColor=#BFBFBF;" parent="1" vertex="1">
          <mxGeometry x="210" y="90" width="250" height="250" as="geometry" />
        </mxCell>
        <mxCell id="xAyLUSCtERjkVuUPuIgZ-53" value="" style="rounded=0;whiteSpace=wrap;html=1;labelBackgroundColor=none;labelBorderColor=none;fontFamily=Comic Sans MS;fontSize=45;strokeWidth=5;strokeColor=#BFBFBF;" parent="1" vertex="1">
          <mxGeometry x="460" y="90" width="250" height="250" as="geometry" />
        </mxCell>
        <mxCell id="xAyLUSCtERjkVuUPuIgZ-54" value="" style="rounded=0;whiteSpace=wrap;html=1;labelBackgroundColor=none;labelBorderColor=none;fontFamily=Comic Sans MS;fontSize=45;strokeWidth=5;strokeColor=#BFBFBF;" parent="1" vertex="1">
          <mxGeometry x="1295" y="90" width="310" height="250" as="geometry" />
        </mxCell>
        <mxCell id="xAyLUSCtERjkVuUPuIgZ-55" value="" style="rounded=0;whiteSpace=wrap;html=1;labelBackgroundColor=none;labelBorderColor=none;fontFamily=Comic Sans MS;fontSize=45;strokeWidth=5;strokeColor=#BFBFBF;" parent="1" vertex="1">
          <mxGeometry x="710" y="90" width="250" height="250" as="geometry" />
        </mxCell>
        <mxCell id="xAyLUSCtERjkVuUPuIgZ-56" value="" style="rounded=0;whiteSpace=wrap;html=1;labelBackgroundColor=none;labelBorderColor=none;fontFamily=Comic Sans MS;fontSize=45;strokeWidth=5;strokeColor=#BFBFBF;" parent="1" vertex="1">
          <mxGeometry x="960" y="90" width="335" height="250" as="geometry" />
        </mxCell>
        <mxCell id="xAyLUSCtERjkVuUPuIgZ-57" value="" style="rounded=0;whiteSpace=wrap;html=1;fontFamily=Times New Roman;fontSize=18;strokeColor=#FFB570;strokeWidth=5;fillColor=#FFB570;fontColor=#FFFFFF;" parent="1" vertex="1">
          <mxGeometry y="90" width="200" height="250" as="geometry" />
        </mxCell>
        <mxCell id="xAyLUSCtERjkVuUPuIgZ-58" value="" style="rounded=0;whiteSpace=wrap;html=1;fontFamily=Times New Roman;fontSize=18;strokeColor=#FFB570;strokeWidth=5;fillColor=#FFB570;fontColor=#FFFFFF;" parent="1" vertex="1">
          <mxGeometry y="350" width="200" height="130" as="geometry" />
        </mxCell>
        <mxCell id="xAyLUSCtERjkVuUPuIgZ-59" value="" style="rounded=0;whiteSpace=wrap;html=1;fontFamily=Times New Roman;fontSize=18;strokeColor=#FFB570;strokeWidth=5;fillColor=#FFB570;fontColor=#FFFFFF;" parent="1" vertex="1">
          <mxGeometry y="490" width="200" height="250" as="geometry" />
        </mxCell>
        <mxCell id="xAyLUSCtERjkVuUPuIgZ-60" value="" style="rounded=0;whiteSpace=wrap;html=1;fontFamily=Times New Roman;fontSize=18;strokeColor=#FFB570;strokeWidth=5;fillColor=#FFB570;fontColor=#FFFFFF;" parent="1" vertex="1">
          <mxGeometry y="960" width="200" height="130" as="geometry" />
        </mxCell>
        <mxCell id="xAyLUSCtERjkVuUPuIgZ-61" value="" style="rounded=0;whiteSpace=wrap;html=1;fontFamily=Times New Roman;fontSize=18;strokeColor=#FFB570;strokeWidth=5;fillColor=#FFB570;fontColor=#FFFFFF;" parent="1" vertex="1">
          <mxGeometry y="750" width="200" height="200" as="geometry" />
        </mxCell>
        <mxCell id="xAyLUSCtERjkVuUPuIgZ-62" value="" style="rounded=0;whiteSpace=wrap;html=1;fontFamily=Times New Roman;fontSize=18;strokeColor=#FFB570;strokeWidth=5;fillColor=#FFB570;fontColor=#FFFFFF;" parent="1" vertex="1">
          <mxGeometry y="1100" width="200" height="130" as="geometry" />
        </mxCell>
        <mxCell id="xAyLUSCtERjkVuUPuIgZ-64" value="" style="rounded=0;whiteSpace=wrap;html=1;labelBackgroundColor=none;labelBorderColor=none;fontFamily=Comic Sans MS;fontSize=45;strokeWidth=5;strokeColor=#BFBFBF;" parent="1" vertex="1">
          <mxGeometry x="210" y="350" width="250" height="130" as="geometry" />
        </mxCell>
        <mxCell id="xAyLUSCtERjkVuUPuIgZ-65" value="" style="rounded=0;whiteSpace=wrap;html=1;labelBackgroundColor=none;labelBorderColor=none;fontFamily=Comic Sans MS;fontSize=45;strokeWidth=5;strokeColor=#BFBFBF;" parent="1" vertex="1">
          <mxGeometry x="460" y="350" width="250" height="130" as="geometry" />
        </mxCell>
        <mxCell id="xAyLUSCtERjkVuUPuIgZ-66" value="" style="rounded=0;whiteSpace=wrap;html=1;labelBackgroundColor=none;labelBorderColor=none;fontFamily=Comic Sans MS;fontSize=45;strokeWidth=5;strokeColor=#BFBFBF;" parent="1" vertex="1">
          <mxGeometry x="710" y="350" width="250" height="130" as="geometry" />
        </mxCell>
        <mxCell id="xAyLUSCtERjkVuUPuIgZ-67" value="" style="rounded=0;whiteSpace=wrap;html=1;labelBackgroundColor=none;labelBorderColor=none;fontFamily=Comic Sans MS;fontSize=45;strokeWidth=5;strokeColor=#BFBFBF;" parent="1" vertex="1">
          <mxGeometry x="960" y="350" width="335" height="130" as="geometry" />
        </mxCell>
        <mxCell id="xAyLUSCtERjkVuUPuIgZ-68" value="" style="rounded=0;whiteSpace=wrap;html=1;labelBackgroundColor=none;labelBorderColor=none;fontFamily=Comic Sans MS;fontSize=45;strokeWidth=5;strokeColor=#BFBFBF;" parent="1" vertex="1">
          <mxGeometry x="1295" y="350" width="310" height="130" as="geometry" />
        </mxCell>
        <mxCell id="xAyLUSCtERjkVuUPuIgZ-70" value="" style="rounded=0;whiteSpace=wrap;html=1;labelBackgroundColor=none;labelBorderColor=none;fontFamily=Comic Sans MS;fontSize=45;strokeWidth=5;strokeColor=#BFBFBF;" parent="1" vertex="1">
          <mxGeometry x="210" y="960" width="250" height="130" as="geometry" />
        </mxCell>
        <mxCell id="xAyLUSCtERjkVuUPuIgZ-71" value="" style="rounded=0;whiteSpace=wrap;html=1;labelBackgroundColor=none;labelBorderColor=none;fontFamily=Comic Sans MS;fontSize=45;strokeWidth=5;strokeColor=#BFBFBF;" parent="1" vertex="1">
          <mxGeometry x="460" y="960" width="250" height="130" as="geometry" />
        </mxCell>
        <mxCell id="xAyLUSCtERjkVuUPuIgZ-72" value="" style="rounded=0;whiteSpace=wrap;html=1;labelBackgroundColor=none;labelBorderColor=none;fontFamily=Comic Sans MS;fontSize=45;strokeWidth=5;strokeColor=#BFBFBF;" parent="1" vertex="1">
          <mxGeometry x="710" y="960" width="250" height="130" as="geometry" />
        </mxCell>
        <mxCell id="xAyLUSCtERjkVuUPuIgZ-73" value="" style="rounded=0;whiteSpace=wrap;html=1;labelBackgroundColor=none;labelBorderColor=none;fontFamily=Comic Sans MS;fontSize=45;strokeWidth=5;strokeColor=#BFBFBF;" parent="1" vertex="1">
          <mxGeometry x="210" y="1100" width="250" height="130" as="geometry" />
        </mxCell>
        <mxCell id="xAyLUSCtERjkVuUPuIgZ-74" value="" style="rounded=0;whiteSpace=wrap;html=1;labelBackgroundColor=none;labelBorderColor=none;fontFamily=Comic Sans MS;fontSize=45;strokeWidth=5;strokeColor=#BFBFBF;" parent="1" vertex="1">
          <mxGeometry x="460" y="1100" width="250" height="130" as="geometry" />
        </mxCell>
        <mxCell id="xAyLUSCtERjkVuUPuIgZ-75" value="" style="rounded=0;whiteSpace=wrap;html=1;labelBackgroundColor=none;labelBorderColor=none;fontFamily=Comic Sans MS;fontSize=45;strokeWidth=5;strokeColor=#BFBFBF;" parent="1" vertex="1">
          <mxGeometry x="710" y="1100" width="250" height="130" as="geometry" />
        </mxCell>
        <mxCell id="xAyLUSCtERjkVuUPuIgZ-79" value="" style="rounded=0;whiteSpace=wrap;html=1;labelBackgroundColor=none;labelBorderColor=none;fontFamily=Comic Sans MS;fontSize=45;strokeWidth=5;strokeColor=#BFBFBF;" parent="1" vertex="1">
          <mxGeometry x="960" y="960" width="335" height="130" as="geometry" />
        </mxCell>
        <mxCell id="xAyLUSCtERjkVuUPuIgZ-80" value="" style="rounded=0;whiteSpace=wrap;html=1;labelBackgroundColor=none;labelBorderColor=none;fontFamily=Comic Sans MS;fontSize=45;strokeWidth=5;strokeColor=#BFBFBF;" parent="1" vertex="1">
          <mxGeometry x="960" y="1100" width="335" height="130" as="geometry" />
        </mxCell>
        <mxCell id="xAyLUSCtERjkVuUPuIgZ-82" value="" style="rounded=0;whiteSpace=wrap;html=1;labelBackgroundColor=none;labelBorderColor=none;fontFamily=Comic Sans MS;fontSize=45;strokeWidth=5;strokeColor=#BFBFBF;" parent="1" vertex="1">
          <mxGeometry x="1295" y="960" width="310" height="130" as="geometry" />
        </mxCell>
        <mxCell id="xAyLUSCtERjkVuUPuIgZ-83" value="" style="rounded=0;whiteSpace=wrap;html=1;labelBackgroundColor=none;labelBorderColor=none;fontFamily=Comic Sans MS;fontSize=45;strokeWidth=5;strokeColor=#BFBFBF;" parent="1" vertex="1">
          <mxGeometry x="1295" y="1100" width="310" height="130" as="geometry" />
        </mxCell>
        <mxCell id="xAyLUSCtERjkVuUPuIgZ-89" value="Действия пользователя" style="text;html=1;strokeColor=none;fillColor=none;align=left;verticalAlign=middle;whiteSpace=wrap;rounded=0;labelBackgroundColor=none;labelBorderColor=none;fontFamily=Comic Sans MS;fontSize=28;fontColor=#FFFFFF;fontStyle=2;labelPosition=center;verticalLabelPosition=middle;" parent="1" vertex="1">
          <mxGeometry y="39" width="210" height="181" as="geometry" />
        </mxCell>
        <mxCell id="xAyLUSCtERjkVuUPuIgZ-90" value="Цели пользователя" style="text;html=1;strokeColor=none;fillColor=none;align=left;verticalAlign=middle;whiteSpace=wrap;rounded=0;labelBackgroundColor=none;labelBorderColor=none;fontFamily=Comic Sans MS;fontSize=28;fontColor=#FFFFFF;fontStyle=2" parent="1" vertex="1">
          <mxGeometry y="370" width="60" height="30" as="geometry" />
        </mxCell>
        <mxCell id="xAyLUSCtERjkVuUPuIgZ-92" value="Опыт пользователя" style="text;html=1;strokeColor=none;fillColor=none;align=left;verticalAlign=middle;whiteSpace=wrap;rounded=0;labelBackgroundColor=none;labelBorderColor=none;fontFamily=Comic Sans MS;fontSize=28;fontColor=#FFFFFF;fontStyle=2" parent="1" vertex="1">
          <mxGeometry y="770" width="60" height="30" as="geometry" />
        </mxCell>
        <mxCell id="xAyLUSCtERjkVuUPuIgZ-94" value="Сценарий пользователя" style="text;html=1;strokeColor=none;fillColor=none;align=left;verticalAlign=middle;whiteSpace=wrap;rounded=0;labelBackgroundColor=none;labelBorderColor=none;fontFamily=Comic Sans MS;fontSize=28;fontColor=#FFFFFF;fontStyle=2" parent="1" vertex="1">
          <mxGeometry y="510" width="60" height="30" as="geometry" />
        </mxCell>
        <mxCell id="So80l603E0sBZ6kL4cZL-1" value="Проблемы" style="text;html=1;strokeColor=none;fillColor=none;align=left;verticalAlign=middle;whiteSpace=wrap;rounded=0;labelBackgroundColor=none;labelBorderColor=none;fontFamily=Comic Sans MS;fontSize=28;fontColor=#FFFFFF;fontStyle=2" parent="1" vertex="1">
          <mxGeometry y="960" width="60" height="30" as="geometry" />
        </mxCell>
        <mxCell id="So80l603E0sBZ6kL4cZL-2" value="Идеи" style="text;html=1;strokeColor=none;fillColor=none;align=center;verticalAlign=middle;whiteSpace=wrap;rounded=0;labelBackgroundColor=none;labelBorderColor=none;fontFamily=Comic Sans MS;fontSize=28;fontColor=#FFFFFF;fontStyle=2" parent="1" vertex="1">
          <mxGeometry x="10" y="1100" width="60" height="30" as="geometry" />
        </mxCell>
        <mxCell id="So80l603E0sBZ6kL4cZL-3" value="Открытие" style="text;html=1;strokeColor=none;fillColor=none;align=center;verticalAlign=middle;whiteSpace=wrap;rounded=0;labelBackgroundColor=none;labelBorderColor=none;fontFamily=Comic Sans MS;fontSize=28;fontColor=#FFFFFF;fontStyle=2" parent="1" vertex="1">
          <mxGeometry x="260" y="49" width="60" height="28" as="geometry" />
        </mxCell>
        <mxCell id="So80l603E0sBZ6kL4cZL-11" value="Рассмотрение" style="text;html=1;strokeColor=none;fillColor=none;align=center;verticalAlign=middle;whiteSpace=wrap;rounded=0;labelBackgroundColor=none;labelBorderColor=none;fontFamily=Comic Sans MS;fontSize=28;fontColor=#FFFFFF;" parent="1" vertex="1">
          <mxGeometry x="580" y="49" width="60" height="30" as="geometry" />
        </mxCell>
        <mxCell id="So80l603E0sBZ6kL4cZL-12" value="Установка" style="text;strokeColor=none;fillColor=none;html=1;fontSize=28;fontStyle=2;verticalAlign=middle;align=center;labelBackgroundColor=none;labelBorderColor=none;fontFamily=Comic Sans MS;fontColor=#FFFFFF;" parent="1" vertex="1">
          <mxGeometry x="800" y="43" width="100" height="40" as="geometry" />
        </mxCell>
        <mxCell id="So80l603E0sBZ6kL4cZL-13" value="Использование" style="text;html=1;strokeColor=none;fillColor=none;align=center;verticalAlign=middle;whiteSpace=wrap;rounded=0;labelBackgroundColor=none;labelBorderColor=none;fontFamily=Comic Sans MS;fontSize=28;fontColor=#FFFFFF;" parent="1" vertex="1">
          <mxGeometry x="1110" y="49" width="60" height="30" as="geometry" />
        </mxCell>
        <mxCell id="So80l603E0sBZ6kL4cZL-14" value="Удаление" style="text;html=1;strokeColor=none;fillColor=none;align=center;verticalAlign=middle;whiteSpace=wrap;rounded=0;labelBackgroundColor=none;labelBorderColor=none;fontFamily=Comic Sans MS;fontSize=28;fontColor=#FFFFFF;fontStyle=2" parent="1" vertex="1">
          <mxGeometry x="1420" y="49" width="60" height="30" as="geometry" />
        </mxCell>
        <mxCell id="So80l603E0sBZ6kL4cZL-18" value="Купить пиццу" style="text;html=1;strokeColor=none;fillColor=none;align=center;verticalAlign=middle;whiteSpace=wrap;rounded=0;labelBackgroundColor=none;labelBorderColor=none;fontFamily=Comic Sans MS;fontSize=20;fontColor=#080808;" parent="1" vertex="1">
          <mxGeometry x="240" y="390" width="190" height="30" as="geometry" />
        </mxCell>
        <mxCell id="ywE__DrLfakxqSnd4fox-2" value="&lt;font style=&quot;font-size: 20px&quot;&gt;&lt;font face=&quot;Comic Sans MS&quot;&gt;Иван хочет пиццу, но у него нет времени на поход в пиццерию&lt;/font&gt;.&amp;nbsp;&lt;/font&gt;" style="text;html=1;strokeColor=none;fillColor=none;align=center;verticalAlign=middle;whiteSpace=wrap;rounded=0;fontSize=18;strokeWidth=1;" parent="1" vertex="1">
          <mxGeometry x="230" y="150" width="210" height="30" as="geometry" />
        </mxCell>
      </root>
    </mxGraphModel>
  </diagram>
</mxfile>
